<svg xmlns="http://www.w3.org/2000/svg"  viewBox="0 0 48 48" width="420px" height="420px"><linearGradient id="SVGID_1_" x1="20.837" x2="7.446" y1="7.804" y2="21.196" gradientUnits="userSpaceOnUse"><stop offset="0" stop-color="#60affe"/><stop offset=".033" stop-color="#6ab4fe"/><stop offset=".197" stop-color="#97cbfe"/><stop offset=".362" stop-color="#bddeff"/><stop offset=".525" stop-color="#daecff"/><stop offset=".687" stop-color="#eef7ff"/><stop offset=".846" stop-color="#fbfdff"/><stop offset="1" stop-color="#fff"/></linearGradient><path fill="url(#SVGID_1_)" d="M20.356,21.5H7.926c-0.235,0-0.426-0.191-0.426-0.426V7.926C7.5,7.691,7.691,7.5,7.926,7.5h12.43	c0.235,0,0.426,0.191,0.426,0.426v13.148C20.783,21.309,20.592,21.5,20.356,21.5z"/><linearGradient id="SVGID_00000070111362486185216280000012866353205599567292_" x1="40.196" x2="26.804" y1="7.804" y2="21.196" gradientUnits="userSpaceOnUse"><stop offset="0" stop-color="#60affe"/><stop offset=".033" stop-color="#6ab4fe"/><stop offset=".197" stop-color="#97cbfe"/><stop offset=".362" stop-color="#bddeff"/><stop offset=".525" stop-color="#daecff"/><stop offset=".687" stop-color="#eef7ff"/><stop offset=".846" stop-color="#fbfdff"/><stop offset="1" stop-color="#fff"/></linearGradient><path fill="url(#SVGID_00000070111362486185216280000012866353205599567292_)" d="M39.715,21.5h-12.43	c-0.235,0-0.426-0.191-0.426-0.426V7.926c0-0.235,0.191-0.426,0.426-0.426h12.43c0.235,0,0.426,0.191,0.426,0.426v13.148	C40.141,21.309,39.951,21.5,39.715,21.5z"/><linearGradient id="SVGID_00000067195571952901983490000015368971108886866337_" x1="20.837" x2="7.446" y1="27.174" y2="40.565" gradientUnits="userSpaceOnUse"><stop offset="0" stop-color="#60affe"/><stop offset=".033" stop-color="#6ab4fe"/><stop offset=".197" stop-color="#97cbfe"/><stop offset=".362" stop-color="#bddeff"/><stop offset=".525" stop-color="#daecff"/><stop offset=".687" stop-color="#eef7ff"/><stop offset=".846" stop-color="#fbfdff"/><stop offset="1" stop-color="#fff"/></linearGradient><path fill="url(#SVGID_00000067195571952901983490000015368971108886866337_)" d="M20.356,40.87H7.926	c-0.235,0-0.426-0.191-0.426-0.426V27.296c0-0.235,0.191-0.426,0.426-0.426h12.43c0.235,0,0.426,0.191,0.426,0.426v13.148	C20.783,40.679,20.592,40.87,20.356,40.87z"/><linearGradient id="SVGID_00000118396851011586853070000009889922052551292046_" x1="40.196" x2="26.804" y1="27.174" y2="40.565" gradientUnits="userSpaceOnUse"><stop offset="0" stop-color="#60affe"/><stop offset=".033" stop-color="#6ab4fe"/><stop offset=".197" stop-color="#97cbfe"/><stop offset=".362" stop-color="#bddeff"/><stop offset=".525" stop-color="#daecff"/><stop offset=".687" stop-color="#eef7ff"/><stop offset=".846" stop-color="#fbfdff"/><stop offset="1" stop-color="#fff"/></linearGradient><path fill="url(#SVGID_00000118396851011586853070000009889922052551292046_)" d="M39.715,40.87h-12.43	c-0.235,0-0.426-0.191-0.426-0.426V27.296c0-0.235,0.191-0.426,0.426-0.426h12.43c0.235,0,0.426,0.191,0.426,0.426v13.148	C40.141,40.679,39.951,40.87,39.715,40.87z"/><path id="rect65_14_" fill="none" stroke="#2e9bfe" stroke-linecap="round" stroke-miterlimit="10" stroke-width="3" d="M15.043,7.5H20.5c0.552,0,1,0.448,1,1v12c0,0.552-0.448,1-1,1h-2.16"/><path id="rect65_13_" fill="none" stroke="#2e9bfe" stroke-linecap="round" stroke-miterlimit="10" stroke-width="3" d="M13.702,21.5H8.5c-0.552,0-1-0.448-1-1v-12c0-0.552,0.448-1,1-1h2.138"/><path id="rect65_12_" fill="none" stroke="#2e9bfe" stroke-linecap="round" stroke-miterlimit="10" stroke-width="3" d="M27.5,7.5h12c0.552,0,1,0.448,1,1v12c0,0.552-0.448,1-1,1h-12c-0.552,0-1-0.448-1-1v-12	C26.5,7.948,26.948,7.5,27.5,7.5z"/><path id="rect65_11_" fill="none" stroke="#2e9bfe" stroke-linecap="round" stroke-miterlimit="10" stroke-width="3" d="M9.809,40.5H8.5c-0.552,0-1-0.448-1-1v-12c0-0.552,0.448-1,1-1h12c0.552,0,1,0.448,1,1v12	c0,0.552-0.448,1-1,1h-6.691H9.809z"/><path id="rect65_5_" fill="none" stroke="#2e9bfe" stroke-linecap="round" stroke-miterlimit="10" stroke-width="3" d="M32.66,40.5H27.5c-0.552,0-1-0.448-1-1v-12c0-0.552,0.448-1,1-1h2.436"/><path id="rect65_1_" fill="none" stroke="#2e9bfe" stroke-linecap="round" stroke-miterlimit="10" stroke-width="3" d="M34.319,26.5H39.5c0.552,0,1,0.448,1,1v12c0,0.552-0.448,1-1,1h-1.383"/></svg>