<?xml version="1.0" encoding="UTF-8"?>
<svg version="1.1" xmlns="http://www.w3.org/2000/svg" width="1080" height="1080">
<path d="M0 0 C356.4 0 712.8 0 1080 0 C1080 356.4 1080 712.8 1080 1080 C723.6 1080 367.2 1080 0 1080 C0 723.6 0 367.2 0 0 Z M274.671875 370.91796875 C260.8056229 386.40330373 252.9571777 405.63151137 253.6484375 426.5234375 C255.12738494 450.68667234 266.45980419 470.38704567 284.13964844 486.39697266 C305.13657215 504.48959747 330.75163509 511.15215364 357.90583801 511.14717102 C359.53674792 511.15047372 361.16765702 511.15420014 362.79856509 511.1583125 C367.27023468 511.16829447 371.74189085 511.17204315 376.21357 511.17470181 C381.04070118 511.1786162 385.86782185 511.18819374 390.69494629 511.19691467 C402.34771769 511.21664728 414.00048992 511.22674131 425.65327385 511.23564246 C431.14733072 511.24003069 436.64138662 511.24539612 442.13544273 511.25063133 C460.41020539 511.26764055 478.68496747 511.28213328 496.95973682 511.28938007 C501.69866245 511.29128981 506.43758807 511.29321017 511.17651367 511.29516602 C512.35427983 511.29564976 513.53204598 511.2961335 514.74550202 511.2966319 C533.81167407 511.30492688 552.87778329 511.3302562 571.94392792 511.36274669 C591.53981923 511.39586638 611.13567865 511.41383328 630.73159808 511.41702431 C641.72539494 511.41918488 652.71910015 511.42786704 663.71286964 511.45348549 C673.07827243 511.47525964 682.44356129 511.48321 691.80898652 511.47351871 C696.58098794 511.46899339 701.35275465 511.47075645 706.12472343 511.49028015 C738.29211081 511.79237808 738.29211081 511.79237808 768.9375 502.75 C769.81664062 502.35796387 770.69578125 501.96592773 771.6015625 501.56201172 C778.61001817 498.3541163 784.89825332 494.74484267 791 490 C791.5249707 489.60087402 792.04994141 489.20174805 792.59082031 488.79052734 C810.85195836 474.78176327 822.33783375 455.85915132 826 433 C828.38242441 411.46357139 821.90057918 391.80128777 808.4375 374.9375 C806.97908506 373.27325025 805.50126856 371.62569803 804 370 C803.37738281 369.29746094 802.75476563 368.59492188 802.11328125 367.87109375 C787.54145046 352.26059997 764.31649308 341.16530656 743.328125 338.359375 C741 338 741 338 739 337 C736.88171465 336.90286374 734.76027765 336.87262234 732.63976669 336.87136555 C731.97643412 336.86961251 731.31310155 336.86785947 730.629668 336.86605331 C728.38506996 336.8613651 726.1405359 336.86386604 723.89593506 336.86628723 C722.27901476 336.86442064 720.66209491 336.86212055 719.04517579 336.85942191 C714.58449788 336.85327801 710.12383864 336.85344055 705.66315746 336.85461628 C700.85851436 336.85481966 696.05387735 336.8493074 691.24923706 336.84455872 C681.82663824 336.83623587 672.40404568 336.83350308 662.98144349 336.83294634 C655.31951947 336.83247166 647.65759751 336.83041929 639.99567413 336.82724571 C618.27542247 336.81843229 596.55517575 336.81382705 574.83492228 336.81457619 C573.0768213 336.81463612 573.0768213 336.81463612 571.28320312 336.81469727 C569.52295482 336.81475859 569.52295482 336.81475859 567.72714594 336.81482115 C548.73160121 336.81522713 529.73607636 336.80567154 510.74053738 336.7915589 C491.23865103 336.7771845 471.73677437 336.7702894 452.23488259 336.77115268 C441.28534117 336.77148443 430.33582053 336.76874731 419.38628387 336.75797462 C410.05721174 336.74885532 400.72816981 336.74670587 391.39909515 336.75348405 C386.64199977 336.75674291 381.88496229 336.75682905 377.12787247 336.7481308 C372.76512073 336.74023604 368.40247249 336.74172748 364.03972319 336.75041493 C362.46888433 336.75194347 360.89803762 336.75015837 359.32720801 336.74455485 C326.61002907 336.63566069 297.69648138 347.12809366 274.671875 370.91796875 Z M319 574 C317.86165648 574.39897743 316.72331295 574.79795486 315.55047417 575.20902252 C312.5906131 576.30924646 309.82378388 577.58625761 307 579 C306.39236816 579.30389648 305.78473633 579.60779297 305.15869141 579.92089844 C282.57308795 591.41113649 265.53231727 608.72814293 257 633 C256.6803125 633.89589844 256.360625 634.79179688 256.03125 635.71484375 C250.28162725 654.69392255 254.16190328 675.69812594 263 693 C276.85448002 716.38981759 300.20532692 732.90509125 326.33007812 739.78393555 C334.21666951 741.76197891 341.79734864 743.12187783 349.94309521 743.13422108 C350.60871105 743.13657331 351.27432688 743.13892554 351.9601129 743.14134905 C354.18242495 743.14798675 356.40467782 743.14758242 358.6269989 743.14717102 C360.23983387 743.15047293 361.85266802 743.15419919 363.46550113 743.1583125 C367.89189317 743.16830381 372.31827166 743.17204468 376.74467337 743.17470181 C381.52139777 743.17861351 386.29811152 743.18819136 391.0748291 743.19691467 C402.60937207 743.21665671 414.14391589 743.22674333 425.67847154 743.23564246 C431.11661458 743.24002987 436.55475666 743.24539558 441.99289894 743.25063133 C460.08232642 743.26764286 478.1717533 743.28213494 496.26118755 743.28938007 C500.95317778 743.29128983 505.645168 743.29321018 510.3371582 743.29516602 C511.50326509 743.29564976 512.66937198 743.2961335 513.87081543 743.2966319 C532.74238004 743.30492437 551.6138811 743.33024842 570.48541798 743.36274669 C589.88127028 743.39587417 609.27709035 743.41383405 628.67297107 743.41702431 C639.55447348 743.41918436 650.43588327 743.42785857 661.31735802 743.45348549 C670.58870041 743.47527047 679.85992769 743.48320481 689.13129278 743.47351871 C693.85480569 743.46899625 698.57808149 743.47073939 703.30156136 743.49028015 C741.85255661 743.64078382 774.45059832 738.73591004 803.25 711.0625 C819.0467929 694.81650919 826.74472612 674.79836177 826.46850586 652.31103516 C825.82066752 634.83800622 818.50618933 618.09148652 807 605 C806.41992188 604.278125 805.83984375 603.55625 805.2421875 602.8125 C794.05249434 589.32868564 778.73453148 580.57109283 762.4375 574.6875 C761.48472168 574.34187012 761.48472168 574.34187012 760.51269531 573.98925781 C748.12644791 569.77384828 736.19558005 568.55740726 723.22750854 568.60559082 C721.57563049 568.60069128 719.92375586 568.5944966 718.27188694 568.58713293 C713.77004663 568.57084475 709.26838271 568.57302848 704.76652336 568.5785079 C699.89651761 568.58119196 695.02655743 568.56662051 690.15657043 568.55441284 C680.62931548 568.53341367 671.10212145 568.52881485 661.57484607 568.53060073 C653.82505799 568.53191128 646.07528883 568.52808929 638.3255043 568.52067566 C636.08832046 568.51857633 633.85113661 568.51647873 631.61395276 568.51438284 C630.50023274 568.51333931 629.38651272 568.51229578 628.23904361 568.51122063 C607.20023088 568.49234007 586.16145306 568.49336159 565.12263538 568.50018996 C545.90876544 568.50576229 526.69502896 568.48494928 507.48119019 568.45182949 C487.71898207 568.4180308 467.95683777 568.40293195 448.19460022 568.40754652 C437.11310162 568.40978516 426.03172633 568.40463709 414.95025253 568.37965393 C405.51435958 568.35856072 396.07865752 568.35512788 386.64275651 568.37395352 C381.8361212 568.38306256 377.02984105 568.38440412 372.22323418 568.36359787 C345.20395425 568.04461472 345.20395425 568.04461472 319 574 Z " fill="#FEFEFE" transform="translate(0,0)"/>
<path d="M0 0 C1.01791908 -0.00307895 1.01791908 -0.00307895 2.05640218 -0.0062201 C4.3349121 -0.01188356 6.61336145 -0.01043366 8.89187717 -0.00901413 C10.54026041 -0.01159816 12.18864301 -0.01461142 13.83702475 -0.01801753 C18.37073365 -0.02608668 22.90442671 -0.02787706 27.43814194 -0.028615 C32.32657904 -0.03046576 37.21500793 -0.03801332 42.10344028 -0.04475021 C52.79589085 -0.05833457 63.48833767 -0.06435873 74.18079543 -0.06876087 C80.85904218 -0.07152374 87.53728748 -0.07576124 94.21553326 -0.08026505 C112.70979153 -0.09245902 131.20404864 -0.10275732 149.69831085 -0.10614014 C150.88212549 -0.1063597 152.06594013 -0.10657927 153.28562794 -0.10680549 C154.47226515 -0.10702377 155.65890236 -0.10724204 156.88149828 -0.10746694 C159.28604535 -0.1079104 161.69059243 -0.10835696 164.0951395 -0.10880661 C165.88424451 -0.10913875 165.88424451 -0.10913875 167.70949305 -0.10947761 C187.02494903 -0.11342343 206.34036723 -0.13087029 225.65580862 -0.15416613 C245.4922737 -0.17789694 265.32871984 -0.19034282 285.16519934 -0.19150805 C296.30026783 -0.19242397 307.43528714 -0.19815499 318.57034206 -0.21632767 C328.05489098 -0.23175214 337.53937551 -0.23683536 347.0239346 -0.22858956 C351.86006361 -0.22469107 356.69606306 -0.22557342 361.53217602 -0.23964691 C365.96701469 -0.25243414 370.40162709 -0.25114622 374.83646566 -0.2390562 C376.43346135 -0.23710749 378.03047333 -0.24013905 379.62744617 -0.24890056 C392.49027596 -0.31495279 404.43961354 1.4094671 416.59880161 5.81892776 C417.65466465 6.19912064 417.65466465 6.19912064 418.73185825 6.58699417 C430.43067092 10.95619339 440.74928789 16.87356426 450.16130161 25.13142776 C450.9179813 25.74502151 451.67466099 26.35861526 452.45427036 26.99080276 C467.25637407 39.32164303 478.56461571 59.13099969 480.38005161 78.46052933 C481.77306918 100.39184963 476.14341097 120.89007299 461.50895786 137.60799026 C460.7342313 138.44072464 459.95950474 139.27345901 459.16130161 140.13142776 C458.35563755 141.00541214 457.54997349 141.87939651 456.71989536 142.77986526 C438.06093085 162.22723673 410.89055936 173.5885472 384.01626366 174.473668 C380.4452384 174.53544013 376.87622874 174.52929735 373.30484104 174.51237869 C371.68052246 174.51584581 370.05620625 174.52061737 368.43189484 174.52656043 C364.02030943 174.53895534 359.60892148 174.53295325 355.19733584 174.52360177 C350.41949331 174.5167639 345.64168278 174.52731576 340.86384678 174.53554153 C331.52482741 174.54883059 322.18588068 174.54602284 312.84685855 174.53730361 C305.25252506 174.53050879 297.65821182 174.5296181 290.06387615 174.53287506 C288.98008208 174.53333476 287.89628801 174.53379446 286.77965169 174.53426809 C284.57746846 174.53522733 282.37528524 174.53619997 280.17310203 174.53718586 C259.55882644 174.54572551 238.94459098 174.53592783 218.33032198 174.51978476 C200.66759785 174.50638099 183.00493288 174.50871295 165.34220982 174.52254105 C144.79655439 174.53861881 124.25093405 174.54490366 103.70527321 174.53570426 C101.51181925 174.53474868 99.31836528 174.53380556 97.12491131 174.53287506 C96.04588216 174.53241223 94.96685301 174.53194941 93.855126 174.53147256 C86.27519897 174.5288894 78.69529432 174.53323905 71.11537075 174.54031372 C61.87050927 174.54875327 52.62572415 174.54639706 43.38087135 174.53047149 C38.66998347 174.52262202 33.9592226 174.51944007 29.24833584 174.52941895 C24.9261174 174.53843564 20.60414232 174.53331971 16.28194559 174.51748629 C14.72834596 174.51416776 13.17472526 174.51576549 11.62113946 174.52311365 C-15.78535135 174.64267737 -43.57461294 166.21698805 -63.83869839 147.13142776 C-64.70881557 146.32834183 -65.57893276 145.52525589 -66.47541714 144.69783401 C-81.93856719 129.88187111 -91.64702871 110.72531645 -92.13166714 89.16756058 C-92.3111224 65.86529424 -83.23646599 46.15563699 -67.24885464 29.42049026 C-51.65607209 14.53751132 -32.62726943 5.97133898 -11.83869839 1.13142776 C-11.11386916 0.95962156 -10.38903993 0.78781535 -9.64224619 0.61080289 C-6.3824393 0.0534126 -3.30827203 0.00341185 0 0 Z M376.68083286 54.24080276 C367.33815381 65.86511295 363.68912073 79.326203 364.89518833 94.0576973 C366.51195017 106.65657352 373.4415796 117.3964738 382.97380161 125.50642776 C396.02967771 135.31848279 410.29122576 136.71442051 426.16130161 135.13142776 C438.53912179 132.4870997 448.32453343 124.34721299 455.36833286 114.18220901 C462.749052 101.62373048 465.13278827 88.3739693 462.16130161 74.06892776 C458.43812512 60.93243711 449.75306712 50.10587001 437.93473911 43.48689651 C416.56014825 33.04044155 393.03597459 36.57247448 376.68083286 54.24080276 Z " fill="#000000" transform="translate(345.838698387146,568.8685722351074)"/>
<path d="M0 0 C1.60590033 -0.00258758 3.21180002 -0.00560182 4.81769884 -0.0090034 C9.21083256 -0.01703038 13.60394991 -0.01886056 17.9970901 -0.01960087 C22.74300873 -0.02145892 27.488919 -0.02900993 32.23483276 -0.03573608 C42.60275168 -0.04928861 52.97066671 -0.05533911 63.33859301 -0.05974674 C69.81771329 -0.06251399 76.2968321 -0.06675218 82.77595139 -0.07125092 C100.73082956 -0.08343881 118.68570654 -0.09373956 136.64058876 -0.09712601 C137.78858095 -0.09734557 138.93657313 -0.09756514 140.11935296 -0.09779136 C141.27001432 -0.09800964 142.42067569 -0.09822791 143.60620558 -0.09845281 C145.93769622 -0.09889627 148.26918685 -0.09934283 150.60067749 -0.09979248 C151.75716527 -0.10001391 152.91365305 -0.10023534 154.10518591 -0.10046348 C172.84021929 -0.10441069 191.57521376 -0.12186453 210.31023212 -0.145152 C229.56603881 -0.16889279 248.821826 -0.18132907 268.07764757 -0.18249393 C278.88071144 -0.18340907 289.68372458 -0.18912106 300.48677444 -0.20731354 C309.68604866 -0.22275125 318.88525644 -0.22781331 328.08454116 -0.21957543 C332.77310982 -0.21568212 337.46154487 -0.21653378 342.15009689 -0.23063278 C346.45222927 -0.24345086 350.75412869 -0.24210557 355.05626111 -0.23004207 C356.60267227 -0.22809869 358.14910039 -0.23109971 359.69548781 -0.23988643 C373.7931003 -0.31484194 387.30268452 1.33019008 400.41171265 6.89044189 C401.25782104 7.24042236 402.10392944 7.59040283 402.97567749 7.95098877 C409.47996781 10.71515595 415.42443293 13.90066394 421.09921265 18.14044189 C421.95643921 18.77852783 422.81366577 19.41661377 423.6968689 20.07403564 C426.22742759 22.03206975 428.67492938 24.05263942 431.09921265 26.14044189 C432.13175171 27.02796143 432.13175171 27.02796143 433.18515015 27.93341064 C445.900151 39.71865847 453.84655235 56.57104689 454.55917358 73.85211182 C454.8804632 93.21764738 448.68574506 109.79072689 435.2671814 123.90606689 C434.19403687 125.01208252 434.19403687 125.01208252 433.09921265 126.14044189 C432.55909546 126.75403564 432.01897827 127.36762939 431.4624939 127.99981689 C419.80368781 140.8039465 402.39824852 147.65066397 386.09921265 152.14044189 C384.85984325 152.48788767 383.62047386 152.83533344 382.34354782 153.19330788 C375.37237537 154.70962915 368.25847611 154.42339951 361.1625061 154.40786743 C359.54040686 154.41160755 357.91830942 154.41621052 356.29621482 154.42159808 C351.8534494 154.43379971 347.41075944 154.43357093 342.9679811 154.43120933 C338.17013506 154.43080042 333.37231297 154.44184769 328.57447815 154.45132446 C319.17789252 154.46792215 309.78133199 154.47343354 300.38473293 154.47454922 C292.74019624 154.4755007 285.09566781 154.47961604 277.45113373 154.48595047 C255.75235807 154.50356302 234.05360218 154.51278984 212.35481933 154.51128952 C210.60093318 154.51116965 210.60093318 154.51116965 208.81161499 154.51104736 C207.64092019 154.5109656 206.47022539 154.51088384 205.26405498 154.5107996 C186.31569096 154.5099877 167.36740662 154.52910108 148.41906562 154.5573241 C128.93838986 154.58610959 109.45775287 154.59986114 89.97705531 154.59813654 C79.05028466 154.59747438 68.12359743 154.60288975 57.19684601 154.62449265 C47.88787878 154.64277957 38.57903275 154.64699082 29.27005526 154.6334738 C24.52818233 154.62698058 19.7865414 154.62669336 15.04469109 154.6441803 C-20.42797052 154.76670028 -50.27838358 151.94738465 -76.90078735 126.14044189 C-77.52340454 125.59130127 -78.14602173 125.04216064 -78.7875061 124.47637939 C-89.49152247 114.71046783 -97.00196546 98.69867402 -98.03970337 84.19952393 C-98.95834119 63.75475401 -93.69338544 46.59326012 -79.90078735 31.14044189 C-79.2459436 30.39149658 -78.59109985 29.64255127 -77.91641235 28.87091064 C-57.22370503 6.66125673 -29.23286991 -0.01894171 0 0 Z M-75.90078735 43.14044189 C-86.00411748 54.95620086 -89.7782647 67.88829016 -88.90078735 83.14044189 C-86.76715121 97.05107752 -80.45997365 108.51846788 -69.26016235 117.18341064 C-56.30841416 125.86108193 -43.48036405 128.31926288 -28.20547485 125.44512939 C-14.07295846 121.46931509 -3.38322851 113.45431878 3.84921265 100.65997314 C9.20650059 89.86168964 11.11349597 76.84345951 8.38046265 65.03497314 C7.42712027 62.30949031 6.35091071 59.74169064 5.09921265 57.14044189 C4.71378296 56.33864502 4.32835327 55.53684814 3.9312439 54.71075439 C-2.55621454 42.23971779 -12.55271675 34.49612809 -25.90078735 30.14044189 C-44.36828441 24.86055739 -61.85203852 31.06264314 -75.90078735 43.14044189 Z " fill="#FEFEFE" transform="translate(361.9007873535156,346.85955810546875)"/>
<path d="M0 0 C1.6273882 -0.0018705 3.25477594 -0.00417216 4.88216299 -0.00686532 C9.33441921 -0.01295976 13.7866566 -0.01285253 18.23891604 -0.01167095 C23.04809457 -0.01146635 27.85726714 -0.01699118 32.66644287 -0.02172852 C42.07958297 -0.03002181 51.49271681 -0.03278273 60.90586025 -0.03334089 C68.55667098 -0.03381652 76.20747964 -0.03587356 83.85828972 -0.03904152 C105.5566045 -0.04784313 127.25491434 -0.05246146 148.95323092 -0.05171105 C150.12208864 -0.05167109 151.29094635 -0.05163113 152.495224 -0.05158997 C153.66551041 -0.05154909 154.83579682 -0.0515082 156.04154646 -0.05146609 C175.02056081 -0.05105937 193.99955535 -0.06063672 212.97856397 -0.07472833 C232.47276935 -0.08908819 251.96696506 -0.09599879 271.46117586 -0.09513456 C282.40317303 -0.09480254 293.3451494 -0.09755206 304.2871418 -0.10831261 C313.59969398 -0.11741228 322.91221592 -0.1195971 332.22477061 -0.11280318 C336.97522632 -0.10953579 341.72562401 -0.10948933 346.47607422 -0.11815643 C350.82652599 -0.12601217 355.17687362 -0.12459948 359.52732282 -0.1158723 C361.09917949 -0.11433532 362.67104389 -0.11616093 364.24289144 -0.12173238 C372.04984549 -0.14756683 379.33393239 0.02435069 386.9002533 2.13371277 C387.99208923 2.39410339 389.08392517 2.65449402 390.20884705 2.92277527 C417.3114604 10.16367322 440.53884859 25.45842613 455.04478455 49.84074402 C464.99548415 67.50061721 467.92041746 86.24218593 462.8377533 105.94621277 C459.27836507 118.60884945 453.56395169 129.19382644 444.9002533 139.13371277 C444.44392517 139.73312683 443.98759705 140.33254089 443.5174408 140.95011902 C429.47780277 159.06713695 403.21021097 170.39530786 381.23652244 173.76165891 C368.39086377 175.1941803 355.27160281 174.6837342 342.36598432 174.6419524 C337.54045636 174.63074616 332.71497498 174.64281669 327.88945007 174.65179443 C318.46111147 174.66566283 309.03290763 174.65821873 299.60457555 174.64311885 C288.60789469 174.62618324 277.61124669 174.62947842 266.61455681 174.63321293 C246.98604769 174.63907958 227.35760289 174.62496588 207.72911072 174.6002655 C188.71281016 174.57633845 169.6965955 174.56926663 150.68028259 174.57975769 C129.93318038 174.59118322 109.1861178 174.59307752 88.43901604 174.57865959 C86.22424869 174.57713387 84.00948133 174.57561351 81.79471397 174.57409859 C80.16047055 174.57296187 80.16047055 174.57296187 78.49321211 174.57180218 C70.84012725 174.56707276 63.18706018 174.56890117 55.5339756 174.57316399 C46.20132308 174.57810541 36.86875152 174.5720404 27.53611747 174.55226969 C22.7806637 174.54244146 18.02533287 174.537244 13.26987267 174.5451622 C8.90702006 174.55227776 4.54441425 174.54527889 0.18159392 174.52755857 C-1.38674842 174.52355188 -2.95511367 174.52444937 -4.52344712 174.53107744 C-17.96050072 174.58295344 -31.09753235 173.13072083 -43.7872467 168.38371277 C-44.4887384 168.12694763 -45.1902301 167.8701825 -45.91297913 167.6056366 C-69.40594672 158.72600522 -89.74844645 141.6586638 -100.6544342 118.88761902 C-108.9846225 98.75222305 -109.82101349 77.58862757 -101.5919342 57.44230652 C-89.9342381 32.74425734 -69.26510519 15.7754862 -44.0997467 6.13371277 C-29.36254008 1.04535613 -15.52774522 -0.01697956 0 0 Z M-79.7091217 41.32121277 C-92.61891153 56.5092008 -98.59973911 73.7837164 -97.35414124 93.66252136 C-95.60605097 110.64349031 -87.85151738 124.02197795 -76.0997467 136.13371277 C-75.55962952 136.74730652 -75.01951233 137.36090027 -74.46302795 137.99308777 C-59.43046074 154.50240592 -34.79972828 163.27122107 -12.96264589 164.4147253 C-8.70662407 164.55513397 -4.45206081 164.54428943 -0.1942749 164.52812195 C1.43544356 164.53302561 3.06515855 164.53922215 4.69486779 164.54657984 C9.12152175 164.5628153 13.54799573 164.56069535 17.97466886 164.55520487 C22.76895674 164.55251424 27.56319879 164.56710418 32.35746765 164.57929993 C41.72990439 164.60026999 51.10227917 164.60489967 60.47473661 164.60311204 C68.0985949 164.6018003 75.722434 164.60562947 83.34628868 164.61303711 C85.54898188 164.61513648 87.75167509 164.61723408 89.95436829 164.61932993 C91.05097428 164.62037346 92.14758026 164.62141698 93.27741673 164.62249213 C113.97860263 164.64136008 134.67975304 164.64035473 155.38094398 164.63352281 C174.28423079 164.62794828 193.18738204 164.64877514 212.09063718 164.68188328 C231.54105704 164.71568311 250.99141206 164.73078089 270.44186181 164.72616625 C281.34558208 164.72392813 292.24917704 164.72906836 303.15287209 164.75405884 C312.43498256 164.77515327 321.71689896 164.77858343 330.99901763 164.75975925 C335.72669054 164.75065193 340.45400238 164.74930336 345.18164635 164.7701149 C368.54005094 164.8661453 389.79242741 164.48652749 410.9002533 153.13371277 C411.90185486 152.62195496 412.90345642 152.11019714 413.93540955 151.58293152 C422.06500454 147.18770532 428.41511802 141.61884804 434.9002533 135.13371277 C435.65435486 134.37961121 436.40845642 133.62550964 437.18540955 132.84855652 C449.93397178 119.31395576 455.72080769 102.39606933 455.42393494 83.97502136 C454.69049745 67.59548203 447.68983795 53.23859917 436.9002533 41.13371277 C436.29568298 40.44664246 435.69111267 39.75957214 435.06822205 39.05168152 C419.14464112 22.05535409 394.43439337 11.12539458 371.25383413 9.94859648 C367.08533497 9.87706305 362.92111399 9.8666151 358.75222778 9.87974548 C357.14388794 9.87743706 355.53554915 9.87425798 353.92721254 9.87029099 C349.53664108 9.86198658 345.14615721 9.86604838 340.75558555 9.87226343 C336.00903807 9.87680494 331.26250523 9.86979568 326.51596069 9.86430359 C317.22807354 9.85542543 307.94021877 9.85732475 298.65233036 9.86312887 C291.09982473 9.86765238 283.54732815 9.86825528 275.99482155 9.86608124 C274.91838739 9.86577477 273.84195323 9.86546831 272.73289985 9.86515255 C270.54585422 9.86451307 268.3588086 9.86386465 266.17176298 9.86320737 C245.67820233 9.85750848 225.1846596 9.86405462 204.69110189 9.8748081 C187.1269396 9.88373939 169.56280377 9.8821942 151.99864197 9.87297058 C131.58121996 9.86225356 111.16381364 9.85806178 90.74638921 9.86419511 C88.56663692 9.86483217 86.38688463 9.86546092 84.20713234 9.86608124 C83.13477987 9.86638979 82.0624274 9.86669834 80.9575794 9.86701624 C73.42032606 9.86873917 65.88308271 9.86583668 58.34583092 9.86112213 C49.15134028 9.85549721 39.95688377 9.85706337 30.76239701 9.86768362 C26.07599461 9.87291928 21.38964898 9.87503324 16.70324707 9.86838531 C12.40436899 9.86237964 8.10559974 9.86577629 3.80673138 9.87634042 C2.26040113 9.87855508 0.71406148 9.87748229 -0.83226261 9.87258884 C-31.613592 9.78273312 -57.93159785 18.84118814 -79.7091217 41.32121277 Z " fill="#080808" transform="translate(361.09974670410156,336.8662872314453)"/>
<path d="M0 0 C10.77595669 8.14260393 17.54815488 19.37961938 19.4296875 32.8359375 C20.82005039 48.00827255 16.51905352 60.26529337 7.5546875 72.3671875 C0.82480861 80.18572326 -9.69477988 87.05403471 -20.08837891 88.0859375 C-22.96125195 88.2472499 -25.81803195 88.31672521 -28.6953125 88.3359375 C-29.61352783 88.34238281 -30.53174316 88.34882812 -31.4777832 88.35546875 C-44.82107506 88.10684341 -55.81685075 83.04808954 -65.50390625 73.984375 C-74.93784581 64.17593122 -79.33623662 51.59526136 -79.09375 38.09936523 C-78.42038659 24.39673164 -72.82373684 12.12046916 -62.83203125 2.71875 C-44.26474131 -12.73795769 -20.05176968 -13.77469395 0 0 Z " fill="#FDFDFD" transform="translate(789.5703125,616.1640625)"/>
<path d="M0 0 C1.051875 0.763125 2.10375 1.52625 3.1875 2.3125 C11.23992816 10.00704247 17.35414348 21.39231352 18.30078125 32.54296875 C18.35294476 48.76582159 14.69889072 61.82856059 3.3828125 73.7421875 C-7.77068932 84.31058759 -21.32762984 87.62321609 -36.3125 87.3359375 C-49.13669086 86.70923027 -60.2786023 79.29572599 -68.875 70.125 C-78.13040881 58.74394706 -81.4550355 44.45226269 -80 30 C-77.27255957 17.36440025 -70.46581161 5.63565126 -59.6875 -1.625 C-59.14416016 -2.0065625 -58.60082031 -2.388125 -58.04101562 -2.78125 C-40.46532653 -14.81655068 -16.55426864 -12.62221681 0 0 Z " fill="#010101" transform="translate(353,386)"/>
</svg>
